<?xml version="1.0" encoding="UTF-8" standalone="no"?>
<!-- Created with Inkscape (http://www.inkscape.org/) -->

<svg
   xmlns:dc="http://purl.org/dc/elements/1.1/"
   xmlns:cc="http://creativecommons.org/ns#"
   xmlns:rdf="http://www.w3.org/1999/02/22-rdf-syntax-ns#"
   xmlns:svg="http://www.w3.org/2000/svg"
   xmlns="http://www.w3.org/2000/svg"
   xmlns:xlink="http://www.w3.org/1999/xlink"
   xmlns:sodipodi="http://sodipodi.sourceforge.net/DTD/sodipodi-0.dtd"
   xmlns:inkscape="http://www.inkscape.org/namespaces/inkscape"
   width="210mm"
   height="297mm"
   id="svg2"
   version="1.1"
   inkscape:version="0.48.2 r9819"
   sodipodi:docname="number.svg"
   enable-background="new">
  <defs
     id="defs4">
    <linearGradient
       id="linearGradient4126">
      <stop
         id="stop4128"
         offset="0"
         style="stop-color:#84270a;stop-opacity:1;" />
      <stop
         style="stop-color:#7a3f07;stop-opacity:1;"
         offset="0.5"
         id="stop4130" />
      <stop
         id="stop4132"
         offset="1"
         style="stop-color:#6f5701;stop-opacity:1;" />
    </linearGradient>
    <linearGradient
       id="linearGradient3869">
      <stop
         style="stop-color:#fdc819;stop-opacity:1;"
         offset="0"
         id="stop3871" />
      <stop
         id="stop3995"
         offset="0.5"
         style="stop-color:#f18015;stop-opacity:1;" />
      <stop
         style="stop-color:#e64312;stop-opacity:1;"
         offset="1"
         id="stop3873" />
    </linearGradient>
    <linearGradient
       inkscape:collect="always"
       xlink:href="#linearGradient3869"
       id="linearGradient3877"
       x1="63.696991"
       y1="448.78937"
       x2="207.54468"
       y2="448.78937"
       gradientUnits="userSpaceOnUse"
       spreadMethod="pad" />
    <linearGradient
       inkscape:collect="always"
       xlink:href="#linearGradient3869"
       id="linearGradient3879"
       gradientUnits="userSpaceOnUse"
       spreadMethod="pad"
       x1="63.696991"
       y1="448.78937"
       x2="207.54468"
       y2="448.78937" />
    <linearGradient
       inkscape:collect="always"
       xlink:href="#linearGradient3869"
       id="linearGradient3881"
       gradientUnits="userSpaceOnUse"
       spreadMethod="pad"
       x1="63.696991"
       y1="448.78937"
       x2="207.54468"
       y2="448.78937" />
    <linearGradient
       inkscape:collect="always"
       xlink:href="#linearGradient3869"
       id="linearGradient3883"
       gradientUnits="userSpaceOnUse"
       spreadMethod="pad"
       x1="63.696991"
       y1="448.78937"
       x2="207.54468"
       y2="448.78937" />
    <linearGradient
       inkscape:collect="always"
       xlink:href="#linearGradient3869"
       id="linearGradient3885"
       gradientUnits="userSpaceOnUse"
       spreadMethod="pad"
       x1="63.696991"
       y1="448.78937"
       x2="207.54468"
       y2="448.78937" />
    <linearGradient
       inkscape:collect="always"
       xlink:href="#linearGradient3869"
       id="linearGradient3887"
       gradientUnits="userSpaceOnUse"
       spreadMethod="pad"
       x1="63.696991"
       y1="448.78937"
       x2="207.54468"
       y2="448.78937" />
    <linearGradient
       inkscape:collect="always"
       xlink:href="#linearGradient3869"
       id="linearGradient3889"
       gradientUnits="userSpaceOnUse"
       spreadMethod="pad"
       x1="63.696991"
       y1="448.78937"
       x2="207.54468"
       y2="448.78937" />
    <linearGradient
       inkscape:collect="always"
       xlink:href="#linearGradient3869"
       id="linearGradient3891"
       gradientUnits="userSpaceOnUse"
       spreadMethod="pad"
       x1="63.696991"
       y1="448.78937"
       x2="207.54468"
       y2="448.78937" />
    <linearGradient
       inkscape:collect="always"
       xlink:href="#linearGradient3869"
       id="linearGradient3893"
       gradientUnits="userSpaceOnUse"
       spreadMethod="pad"
       x1="63.696991"
       y1="448.78937"
       x2="207.54468"
       y2="448.78937" />
    <linearGradient
       inkscape:collect="always"
       xlink:href="#linearGradient3869"
       id="linearGradient3895"
       gradientUnits="userSpaceOnUse"
       spreadMethod="pad"
       x1="63.696991"
       y1="448.78937"
       x2="207.54468"
       y2="448.78937" />
    <linearGradient
       inkscape:collect="always"
       xlink:href="#linearGradient3869"
       id="linearGradient3897"
       gradientUnits="userSpaceOnUse"
       spreadMethod="pad"
       x1="63.696991"
       y1="448.78937"
       x2="207.54468"
       y2="448.78937" />
    <linearGradient
       inkscape:collect="always"
       xlink:href="#linearGradient3869"
       id="linearGradient3997"
       gradientUnits="userSpaceOnUse"
       gradientTransform="matrix(1.9842593,0,0,1.9842593,-52.855445,-414.6539)"
       spreadMethod="reflect"
       x1="205.29643"
       y1="356.31964"
       x2="221.58206"
       y2="384.52716" />
    <linearGradient
       inkscape:collect="always"
       xlink:href="#linearGradient4126"
       id="linearGradient3999"
       gradientUnits="userSpaceOnUse"
       gradientTransform="matrix(1.9842593,0,0,1.9842593,-52.855445,-414.6539)"
       x1="206.72849"
       y1="370.4234"
       x2="220.14999"
       y2="370.4234" />
    <linearGradient
       inkscape:collect="always"
       xlink:href="#linearGradient3869"
       id="linearGradient4002"
       gradientUnits="userSpaceOnUse"
       gradientTransform="matrix(1.9822833,0,0,1.9822833,-51.811929,-414.13117)"
       spreadMethod="reflect"
       x1="189.17354"
       y1="356.49463"
       x2="205.379"
       y2="384.56329" />
    <linearGradient
       inkscape:collect="always"
       xlink:href="#linearGradient4126"
       id="linearGradient4004"
       gradientUnits="userSpaceOnUse"
       gradientTransform="matrix(1.9822833,0,0,1.9822833,-51.811929,-414.13117)"
       x1="190.39172"
       y1="370.52896"
       x2="204.16081"
       y2="370.52896" />
    <linearGradient
       inkscape:collect="always"
       xlink:href="#linearGradient3869"
       id="linearGradient4007"
       gradientUnits="userSpaceOnUse"
       gradientTransform="matrix(1.9454515,0,0,1.9454515,-46.050641,-400.39589)"
       spreadMethod="reflect"
       x1="173.81213"
       y1="356.76523"
       x2="189.65285"
       y2="384.20218" />
    <linearGradient
       inkscape:collect="always"
       xlink:href="#linearGradient4126"
       id="linearGradient4009"
       gradientUnits="userSpaceOnUse"
       gradientTransform="matrix(1.9454515,0,0,1.9454515,-46.050641,-400.39589)"
       x1="174.53293"
       y1="370.4837"
       x2="188.93205"
       y2="370.4837" />
    <linearGradient
       inkscape:collect="always"
       xlink:href="#linearGradient3869"
       id="linearGradient4012"
       gradientUnits="userSpaceOnUse"
       gradientTransform="matrix(1.99821,0,0,1.99821,-52.700858,-419.91195)"
       spreadMethod="reflect"
       x1="156.20216"
       y1="355.88062"
       x2="173.04694"
       y2="385.05664" />
    <linearGradient
       inkscape:collect="always"
       xlink:href="#linearGradient4126"
       id="linearGradient4014"
       gradientUnits="userSpaceOnUse"
       gradientTransform="matrix(1.99821,0,0,1.99821,-52.700858,-419.91195)"
       x1="157.84862"
       y1="370.46863"
       x2="171.40048"
       y2="370.46863" />
    <linearGradient
       inkscape:collect="always"
       xlink:href="#linearGradient3869"
       id="linearGradient4017"
       gradientUnits="userSpaceOnUse"
       gradientTransform="matrix(1.9627257,0,0,1.9627257,-47.972986,-405.93734)"
       spreadMethod="reflect"
       x1="139.98193"
       y1="355.75424"
       x2="156.48508"
       y2="384.33853" />
    <linearGradient
       inkscape:collect="always"
       xlink:href="#linearGradient4126"
       id="linearGradient4019"
       gradientUnits="userSpaceOnUse"
       gradientTransform="matrix(1.9627257,0,0,1.9627257,-47.972986,-405.93734)"
       x1="141.49016"
       y1="370.04639"
       x2="154.97685"
       y2="370.04639" />
    <linearGradient
       inkscape:collect="always"
       xlink:href="#linearGradient3869"
       id="linearGradient4022"
       gradientUnits="userSpaceOnUse"
       gradientTransform="matrix(1.8461539,0,0,1.8461539,-31.982863,-363.07879)"
       spreadMethod="reflect"
       x1="122.92045"
       y1="354.49924"
       x2="141.04692"
       y2="385.89517" />
    <linearGradient
       inkscape:collect="always"
       xlink:href="#linearGradient4126"
       id="linearGradient4024"
       gradientUnits="userSpaceOnUse"
       gradientTransform="matrix(1.8461539,0,0,1.8461539,-31.982863,-363.07879)"
       x1="124.1324"
       y1="370.1972"
       x2="139.83498"
       y2="370.1972" />
    <linearGradient
       inkscape:collect="always"
       xlink:href="#linearGradient3869"
       id="linearGradient4027"
       gradientUnits="userSpaceOnUse"
       gradientTransform="matrix(1.9822821,0,0,1.9822821,-49.679459,-414.36984)"
       spreadMethod="reflect"
       x1="107.50221"
       y1="356.05331"
       x2="124.35654"
       y2="385.24588" />
    <linearGradient
       inkscape:collect="always"
       xlink:href="#linearGradient4126"
       id="linearGradient4029"
       gradientUnits="userSpaceOnUse"
       gradientTransform="matrix(1.9822821,0,0,1.9822821,-49.679459,-414.36984)"
       x1="108.90362"
       y1="370.6496"
       x2="122.95514"
       y2="370.6496" />
    <linearGradient
       inkscape:collect="always"
       xlink:href="#linearGradient3869"
       id="linearGradient4032"
       gradientUnits="userSpaceOnUse"
       gradientTransform="matrix(1.9862402,0,0,1.9862402,-49.30869,-415.77701)"
       spreadMethod="reflect"
       x1="91.483421"
       y1="356.17871"
       x2="108.1581"
       y2="385.06012" />
    <linearGradient
       inkscape:collect="always"
       xlink:href="#linearGradient4126"
       id="linearGradient4034"
       gradientUnits="userSpaceOnUse"
       gradientTransform="matrix(1.9862402,0,0,1.9862402,-49.30869,-415.77701)"
       x1="92.892761"
       y1="370.61942"
       x2="106.74877"
       y2="370.61942" />
    <linearGradient
       inkscape:collect="always"
       xlink:href="#linearGradient3869"
       id="linearGradient4037"
       gradientUnits="userSpaceOnUse"
       gradientTransform="matrix(1.9117979,0,0,1.9117979,-40.119292,-387.6395)"
       spreadMethod="reflect"
       x1="77.496399"
       y1="355.89166"
       x2="85.23542"
       y2="384.77411" />
    <linearGradient
       inkscape:collect="always"
       xlink:href="#linearGradient4126"
       id="linearGradient4039"
       gradientUnits="userSpaceOnUse"
       gradientTransform="matrix(1.9117979,0,0,1.9117979,-40.119292,-387.6395)"
       x1="77.881218"
       y1="370.33289"
       x2="84.850601"
       y2="370.33289" />
    <linearGradient
       inkscape:collect="always"
       xlink:href="#linearGradient3869"
       id="linearGradient4042"
       gradientUnits="userSpaceOnUse"
       gradientTransform="matrix(2.0377594,0,0,1.977851,-50.763662,-411.89235)"
       spreadMethod="reflect"
       x1="58.39584"
       y1="355.12576"
       x2="75.833656"
       y2="385.32895" />
    <linearGradient
       inkscape:collect="always"
       xlink:href="#linearGradient4126"
       id="linearGradient4044"
       gradientUnits="userSpaceOnUse"
       gradientTransform="matrix(2.0377594,0,0,1.977851,-50.763662,-411.89235)"
       x1="59.849998"
       y1="370.22736"
       x2="74.379456"
       y2="370.22736" />
  </defs>
  <sodipodi:namedview
     id="base"
     pagecolor="#ffffff"
     bordercolor="#666666"
     borderopacity="1.0"
     inkscape:pageopacity="0.0"
     inkscape:pageshadow="2"
     inkscape:zoom="1.965471"
     inkscape:cx="250.67398"
     inkscape:cy="715.34923"
     inkscape:document-units="px"
     inkscape:current-layer="layer1"
     showgrid="false"
     inkscape:window-width="1280"
     inkscape:window-height="747"
     inkscape:window-x="-8"
     inkscape:window-y="-8"
     inkscape:window-maximized="1" />
  <metadata
     id="metadata7">
    <rdf:RDF>
      <cc:Work
         rdf:about="">
        <dc:format>image/svg+xml</dc:format>
        <dc:type
           rdf:resource="http://purl.org/dc/dcmitype/StillImage" />
        <dc:title></dc:title>
      </cc:Work>
    </rdf:RDF>
  </metadata>
  <g
     inkscape:label="レイヤー 1"
     inkscape:groupmode="layer"
     id="layer1"
     style="display:inline">
    <path
       inkscape:connector-curvature="0"
       id="path3011"
       style="font-size:40px;font-style:normal;font-variant:normal;font-weight:normal;font-stretch:normal;line-height:125%;letter-spacing:0px;word-spacing:0px;fill:url(#linearGradient4042);fill-opacity:1;fill-rule:nonzero;stroke:url(#linearGradient4044);stroke-width:1.00379086;stroke-linecap:butt;stroke-linejoin:round;stroke-miterlimit:4;stroke-opacity:1;stroke-dasharray:none;font-family:French Script MT;-inkscape-font-specification:French Script MT"
       d="m 81.949377,307.62639 c -0.08856,-0.59647 -0.132821,-1.45151 -0.132799,-2.56507 -1.3e-5,-2.98255 0.678778,-5.45815 2.036374,-7.42673 1.357568,-1.96846 3.098814,-2.95274 5.223745,-2.95278 3.275887,4e-5 5.998431,2.2171 8.167643,6.65124 2.16915,4.43421 3.25374,10.3895 3.25377,17.86591 -3e-5,9.18649 -1.431401,16.59334 -4.294098,22.22052 -2.862756,5.62722 -6.419031,8.4408 -10.668839,8.4408 -4.072762,0 -7.429824,-2.61475 -10.071203,-7.84426 -2.641383,-5.22952 -3.962077,-11.84099 -3.962075,-19.83444 -2e-6,-14.79376 4.530191,-25.23294 13.590594,-31.3175 l 0.664036,1.49129 c -6.846955,6.00504 -10.270421,14.75408 -10.270415,26.24707 -6e-6,7.59572 1.261659,13.97859 3.785001,19.14844 2.523321,5.16987 5.437697,7.75477 8.743133,7.75477 2.833195,0 5.172076,-2.02816 7.016644,-6.08452 1.844508,-4.05636 2.766784,-9.40518 2.766812,-16.04651 -2.8e-5,-6.91965 -1.018209,-12.53689 -3.054563,-16.85181 -2.036398,-4.31481 -4.397411,-6.47224 -7.083045,-6.47228 -1.328085,4e-5 -2.390543,0.59658 -3.187369,1.78959 -0.796856,1.19309 -1.195276,2.78381 -1.195265,4.77219 l 0,0.65617 z"
       inkscape:export-filename="D:\13CI0236\TGS\Proto\work\res\gra\path3029.png"
       inkscape:export-xdpi="89.882866"
       inkscape:export-ydpi="89.882866" />
    <path
       inkscape:connector-curvature="0"
       id="path3013"
       style="font-size:40px;font-style:normal;font-variant:normal;font-weight:normal;font-stretch:normal;line-height:125%;letter-spacing:0px;word-spacing:0px;fill:url(#linearGradient4037);fill-opacity:1;fill-rule:nonzero;stroke:url(#linearGradient4039);stroke-width:0.955899;stroke-linecap:butt;stroke-linejoin:round;stroke-miterlimit:4;stroke-opacity:1;stroke-dasharray:none;font-family:French Script MT;-inkscape-font-specification:French Script MT"
       d="m 121.81113,346.59761 -4.40245,3.28662 0,-46.9931 c -2.29815,2.22956 -4.80395,3.76717 -7.5174,4.61282 l -0.83065,-2.13345 c 5.64843,-2.38323 9.70478,-7.2267 12.16905,-14.53037 l 0.58145,0.5766 z"
       inkscape:export-filename="D:\13CI0236\TGS\Proto\work\res\gra\path3029.png"
       inkscape:export-xdpi="89.882866"
       inkscape:export-ydpi="89.882866" />
    <path
       inkscape:connector-curvature="0"
       id="path3015"
       style="font-size:40px;font-style:normal;font-variant:normal;font-weight:normal;font-stretch:normal;line-height:125%;letter-spacing:0px;word-spacing:0px;fill:url(#linearGradient4032);fill-opacity:1;fill-rule:nonzero;stroke:url(#linearGradient4034);stroke-width:0.99312007;stroke-linecap:butt;stroke-linejoin:round;stroke-miterlimit:4;stroke-opacity:1;stroke-dasharray:none;font-family:French Script MT;-inkscape-font-specification:French Script MT"
       d="m 162.42206,335.60812 c -0.60412,4.433 -2.04245,7.9175 -4.315,10.4535 -2.27256,2.53599 -4.63141,3.804 -7.07656,3.804 -2.47395,0 -4.6602,-1.1582 -6.55877,-3.47453 -1.09314,-1.35783 -2.20065,-2.03679 -3.32254,-2.03679 -2.21503,0 -3.55268,1.75724 -4.01293,5.27168 l -1.2082,0 c 0.14383,-5.91065 1.64688,-11.1923 4.50916,-15.84498 2.86226,-4.65266 5.54473,-8.11716 8.04743,-10.39361 2.5027,-2.31631 4.3006,-4.83234 5.39375,-7.54805 1.0931,-2.71571 1.63968,-5.37149 1.6397,-7.96745 -2e-5,-3.55433 -0.85584,-6.72934 -2.56741,-9.52496 -1.71165,-2.79554 -3.8188,-4.19334 -6.32148,-4.1934 -2.4164,6e-5 -4.43725,1.0684 -6.06255,3.20498 -1.62531,2.13668 -2.43796,4.86235 -2.43796,8.17707 0,2.39623 0.43869,4.33318 1.31607,5.81082 0.87738,1.4777 1.97769,2.21655 3.30097,2.21651 1.17941,4e-5 2.15027,-0.53911 2.9126,-1.61746 0.7623,-1.07826 1.14346,-2.31629 1.14347,-3.71411 l 0,-1.07833 0.94929,-0.47923 c 0.43149,1.0384 0.64724,2.29642 0.64725,3.77403 -1e-5,2.47614 -0.58254,4.44304 -1.74756,5.90071 -1.16506,1.45772 -2.68249,2.18657 -4.5523,2.18655 -1.92738,2e-5 -3.50953,-0.97844 -4.74649,-2.93537 -1.23696,-1.95689 -1.85544,-4.49287 -1.85544,-7.608 0,-4.79237 1.28011,-8.846 3.84034,-12.16079 2.56021,-3.31472 5.72453,-4.97211 9.49295,-4.97217 3.25063,6e-5 6.03376,1.44779 8.3495,4.34315 2.3157,2.8955 3.47354,6.37996 3.47358,10.4535 -4e-5,6.70944 -3.30819,13.07939 -9.92447,19.10984 -6.61632,6.03047 -10.55735,11.94115 -11.82306,17.732 1.52462,-1.6374 3.29376,-2.45611 5.30743,-2.45611 1.46707,0 3.35128,0.53915 5.65261,1.61743 2.3301,1.03839 3.84034,1.55755 4.53077,1.55755 1.49582,0 2.74715,-0.5691 3.75402,-1.70728 1.0068,-1.1382 2.05676,-3.34474 3.14993,-6.61959 z"
       inkscape:export-filename="D:\13CI0236\TGS\Proto\work\res\gra\path3029.png"
       inkscape:export-xdpi="89.882866"
       inkscape:export-ydpi="89.882866" />
    <path
       inkscape:connector-curvature="0"
       id="path3017"
       style="font-size:40px;font-style:normal;font-variant:normal;font-weight:normal;font-stretch:normal;line-height:125%;letter-spacing:0px;word-spacing:0px;fill:url(#linearGradient4027);fill-opacity:1;fill-rule:nonzero;stroke:url(#linearGradient4029);stroke-width:0.99114096;stroke-linecap:butt;stroke-linejoin:round;stroke-miterlimit:4;stroke-opacity:1;stroke-dasharray:none;font-family:French Script MT;-inkscape-font-specification:French Script MT"
       d="m 185.09915,318.35935 c 5.77052,2.35161 8.65582,6.81564 8.65583,13.39208 -1e-5,4.5039 -1.56468,8.64905 -4.69396,12.43549 -3.12933,3.78645 -6.76103,5.67969 -10.89514,5.67969 -3.35898,0 -6.14377,-1.34522 -8.35437,-4.03557 -2.21064,-2.69037 -3.31594,-5.74941 -3.31594,-9.17717 0,-2.511 0.60289,-4.65333 1.80868,-6.42699 1.20577,-1.77363 2.66997,-2.66047 4.39254,-2.66049 2.95702,2e-5 5.15327,2.25198 6.58874,6.75581 l -1.03352,1.07619 c -0.97612,-1.8733 -2.26805,-2.80995 -3.87573,-2.80995 -1.1771,0 -2.19628,0.59784 -3.05754,1.79355 -0.8613,1.19574 -1.29193,2.63061 -1.29193,4.30461 0,2.27187 0.83975,4.27472 2.51924,6.00852 1.67946,1.73377 3.6676,2.60067 5.96435,2.60067 2.87088,0 5.33986,-1.44482 7.40695,-4.33447 2.06705,-2.88967 3.10059,-6.34729 3.10062,-10.37288 -3e-5,-3.30816 -0.76083,-6.19781 -2.28239,-8.66898 -1.52162,-2.47115 -3.11495,-3.70672 -4.78008,-3.70673 -0.66034,10e-6 -1.3063,0.29906 -1.93787,0.89677 -0.60292,0.55804 -1.30629,0.83703 -2.11014,0.83699 -0.88999,4e-5 -1.33496,-0.33874 -1.33496,-1.01636 0,-1.47468 1.70818,-2.29178 5.12458,-2.45122 4.04798,-3.34798 6.07199,-7.67251 6.07202,-12.97357 -3e-5,-3.2284 -0.82543,-5.92873 -2.47619,-8.10099 -1.65081,-2.17219 -3.73938,-3.25832 -6.2658,-3.25838 -2.32544,6e-5 -4.25614,0.98656 -5.79206,2.95943 -1.53596,1.97301 -2.30392,4.25482 -2.30392,6.84551 0,1.59435 0.44499,3.04913 1.33499,4.36438 0.88996,1.31533 1.88044,1.97296 2.97139,1.97293 1.83737,3e-5 3.21541,-1.51453 4.13412,-4.54372 l 0.99047,0.65765 c -1.26322,5.5402 -3.4164,8.31028 -6.45958,8.31024 -1.66514,4e-5 -3.02164,-0.73731 -4.06953,-2.21208 -1.0479,-1.47467 -1.57183,-3.46754 -1.57183,-5.97861 0,-4.22483 1.27758,-7.8917 3.83269,-11.00064 2.55511,-3.10879 5.6557,-4.66326 9.30178,-4.66331 3.15798,5e-5 5.69877,1.15593 7.62231,3.4676 1.9235,2.31177 2.88522,5.36085 2.88528,9.14727 -6e-5,5.61994 -2.26807,10.58217 -6.8041,14.88673 z"
       inkscape:export-filename="D:\13CI0236\TGS\Proto\work\res\gra\path3029.png"
       inkscape:export-xdpi="89.882866"
       inkscape:export-ydpi="89.882866" />
    <path
       inkscape:connector-curvature="0"
       id="path3019"
       style="font-size:40px;font-style:normal;font-variant:normal;font-weight:normal;font-stretch:normal;line-height:125%;letter-spacing:0px;word-spacing:0px;fill:url(#linearGradient4022);fill-opacity:1;fill-rule:nonzero;stroke:url(#linearGradient4024);stroke-width:0.92307693;stroke-linecap:butt;stroke-linejoin:round;stroke-miterlimit:4;stroke-opacity:1;stroke-dasharray:none;font-family:French Script MT;-inkscape-font-specification:French Script MT"
       d="m 225.89705,325.84669 c -0.96256,5.23398 -3.5695,8.6119 -7.82076,10.13383 l 0,10.74631 -4.25129,3.17381 0,-14.36557 c -4.41174,-1.81886 -7.45983,-2.72831 -9.1443,-2.72834 -2.64701,3e-5 -4.82614,1.18785 -6.53734,3.56354 l -0.68182,-0.8352 c 6.20313,-12.73221 10.66831,-25.76141 13.39556,-39.08764 1.87164,-1.29917 4.17107,-3.17374 6.89834,-5.62371 l 0.24065,0.8352 c -2.00537,6.57034 -4.35828,12.76942 -7.05875,18.59726 l -8.94375,19.37678 c 1.47055,-0.63104 3.16838,-0.94654 5.09352,-0.94657 2.0053,3e-5 4.25126,0.46404 6.73789,1.392 l 0,-23.38576 4.25129,-3.06242 0,27.56181 c 3.0748,0 5.37423,-1.96736 6.89831,-5.90214 z"
       inkscape:export-filename="D:\13CI0236\TGS\Proto\work\res\gra\path3029.png"
       inkscape:export-xdpi="89.882866"
       inkscape:export-ydpi="89.882866" />
    <path
       inkscape:connector-curvature="0"
       id="path3021"
       style="font-size:40px;font-style:normal;font-variant:normal;font-weight:normal;font-stretch:normal;line-height:125%;letter-spacing:0px;word-spacing:0px;fill:url(#linearGradient4017);fill-opacity:1;fill-rule:nonzero;stroke:url(#linearGradient4019);stroke-width:0.98136282;stroke-linecap:butt;stroke-linejoin:round;stroke-miterlimit:4;stroke-opacity:1;stroke-dasharray:none;font-family:French Script MT;-inkscape-font-specification:French Script MT"
       d="m 235.74142,317.136 c 3.01315,-3.47282 6.18264,-5.20924 9.5085,-5.20928 3.06998,4e-5 5.61409,1.48983 7.63236,4.46933 2.01823,2.97957 3.02735,6.67931 3.02736,11.09929 -1e-5,5.91964 -1.47106,11.12891 -4.4131,15.62781 -2.94213,4.4989 -6.5167,6.74835 -10.72372,6.74835 -3.09845,0 -5.66387,-1.19378 -7.69632,-3.58136 -2.03247,-2.38758 -3.0487,-5.21911 -3.0487,-8.49468 0,-2.60461 0.61116,-4.81457 1.83348,-6.62999 1.22232,-1.81532 2.79995,-2.72298 4.73293,-2.72298 2.41619,0 4.47708,1.97318 6.18266,5.9196 l -1.02335,1.00634 c -1.13705,-1.69694 -2.35937,-2.54543 -3.66696,-2.54543 -1.30759,0 -2.39489,0.62155 -3.26186,1.86466 -0.86703,1.24314 -1.30052,2.83158 -1.30049,4.7653 -3e-5,2.21002 0.73196,4.07469 2.1959,5.59406 1.46391,1.51938 3.27608,2.27907 5.43648,2.27907 2.95627,0 5.40802,-1.53912 7.35521,-4.61731 1.94716,-3.0782 2.92075,-6.98514 2.92076,-11.72087 -1e-5,-4.18317 -0.81015,-7.67575 -2.43041,-10.47774 -1.62031,-2.80192 -3.62434,-4.2029 -6.01211,-4.20292 -2.92788,2e-5 -5.64255,1.85483 -8.14402,5.56445 l -1.40711,-0.71038 c 0.88122,-6.43261 1.32181,-12.90474 1.32181,-19.41635 l -0.17056,-9.5306 1.06599,-1.3615 c 2.64359,4.53843 5.78465,6.80761 9.42321,6.80757 3.38267,4e-5 6.08312,-2.22969 8.10139,-6.68917 l 1.40708,0.94713 c -2.70049,7.14306 -6.69433,10.71457 -11.98156,10.71451 -2.21723,6e-5 -4.19281,-0.61165 -5.9268,-1.83509 -0.0567,3.19666 -0.36956,8.6427 -0.93807,16.33818 z"
       inkscape:export-filename="D:\13CI0236\TGS\Proto\work\res\gra\path3029.png"
       inkscape:export-xdpi="89.882866"
       inkscape:export-ydpi="89.882866" />
    <path
       inkscape:connector-curvature="0"
       id="path3023"
       style="font-size:40px;font-style:normal;font-variant:normal;font-weight:normal;font-stretch:normal;line-height:125%;letter-spacing:0px;word-spacing:0px;fill:url(#linearGradient4012);fill-opacity:1;fill-rule:nonzero;stroke:url(#linearGradient4014);stroke-width:0.99910504;stroke-linecap:butt;stroke-linejoin:round;stroke-miterlimit:4;stroke-opacity:1;stroke-dasharray:none;font-family:French Script MT;-inkscape-font-specification:French Script MT"
       d="m 271.2614,329.07067 c -0.89712,-1.72759 -1.34569,-3.61594 -1.34569,-5.66503 0,-3.25436 0.92606,-6.01657 2.77822,-8.28664 1.85216,-2.27002 4.095,-3.40501 6.72855,-3.40507 2.95183,6e-5 5.36831,1.50671 7.24944,4.52 1.88105,3.01334 2.82162,6.93067 2.82163,11.75195 -1e-5,6.06683 -1.30957,11.22967 -3.9286,15.48847 -2.61907,4.25884 -5.78076,6.38828 -9.48504,6.38828 -3.82008,0 -6.95284,-2.14951 -9.39822,-6.44853 -2.44545,-4.29898 -3.66816,-10.02429 -3.66814,-17.17593 -2e-5,-9.68276 1.9245,-17.99953 5.77349,-24.95031 3.84902,-6.9507 8.29127,-10.42606 13.32685,-10.42612 1.64953,6e-5 2.95184,0.42194 3.90688,1.2656 0.95498,0.84378 1.43249,1.96878 1.43253,3.37495 -4e-5,1.36606 -0.39796,2.5714 -1.19379,3.61596 -0.79585,1.04467 -1.70021,1.56697 -2.71309,1.56694 -0.26048,3e-5 -0.62224,-0.0804 -1.08525,-0.24098 l -0.0869,-0.72319 c 1.01288,-0.8437 1.51935,-1.90842 1.51937,-3.19413 -2e-5,-2.04902 -1.09974,-3.07355 -3.29916,-3.07357 -3.5307,2e-5 -6.69238,2.83256 -9.48506,8.49754 -2.7927,5.66508 -4.18904,12.33457 -4.18904,20.00848 0,6.8704 1.0346,12.49525 3.1038,16.8746 2.06919,4.37936 4.79676,6.56904 8.18275,6.56904 2.60457,0 4.68825,-1.28567 6.25102,-3.85706 1.56275,-2.57136 2.34411,-5.94628 2.34414,-10.12475 -3e-5,-4.1383 -0.86823,-7.55338 -2.60458,-10.24532 -1.73643,-2.69186 -3.8201,-4.0378 -6.25102,-4.03784 -1.7943,4e-5 -3.28473,0.80359 -4.47122,2.41067 -1.18655,1.60714 -1.77982,3.55575 -1.7798,5.84584 -2e-5,1.36606 0.11588,2.31023 0.34728,2.83252 z"
       inkscape:export-filename="D:\13CI0236\TGS\Proto\work\res\gra\path3029.png"
       inkscape:export-xdpi="89.882866"
       inkscape:export-ydpi="89.882866" />
    <path
       inkscape:connector-curvature="0"
       id="path3025"
       style="font-size:40px;font-style:normal;font-variant:normal;font-weight:normal;font-stretch:normal;line-height:125%;letter-spacing:0px;word-spacing:0px;fill:url(#linearGradient4007);fill-opacity:1;fill-rule:nonzero;stroke:url(#linearGradient4009);stroke-width:0.97272575;stroke-linecap:butt;stroke-linejoin:round;stroke-miterlimit:4;stroke-opacity:1;stroke-dasharray:none;font-family:French Script MT;-inkscape-font-specification:French Script MT"
       d="m 321.21564,293.01951 c -0.19734,1.52561 -1.67651,4.59628 -4.43769,9.21202 -4.62085,7.70608 -7.91743,14.69819 -9.88972,20.97641 -1.97231,6.27827 -2.95846,10.80603 -2.95845,13.58329 -10e-6,1.76031 0.32402,3.27605 0.97205,4.54736 0.64805,1.27132 1.5074,1.90694 2.57809,1.90694 1.54967,0 2.87393,-1.68202 3.97281,-5.0461 l 0.67622,0.35208 c -0.16906,3.40317 -0.90871,6.14133 -2.21885,8.21454 -1.3102,2.07317 -2.85283,3.10977 -4.62787,3.10977 -1.83144,0 -3.29659,-1.02679 -4.39543,-3.08045 -1.09886,-2.05362 -1.64829,-4.76244 -1.64828,-8.12651 -10e-6,-7.62775 3.02887,-16.38993 9.0867,-26.28652 l 7.77651,-12.73253 c -0.16905,6e-5 -0.78895,0.19557 -1.85961,0.58678 -1.04252,0.39119 -2.11319,0.58677 -3.21202,0.58673 -1.2116,4e-5 -2.84578,-0.25415 -4.90262,-0.76278 -2.05685,-0.50846 -3.49379,-0.76272 -4.31089,-0.76276 -1.49332,4e-5 -2.7401,0.41076 -3.74032,1.23216 -1.00028,0.82149 -1.52856,1.44738 -1.5849,1.8776 l -0.97206,6.74768 -1.73282,-0.41073 2.40904,-17.89595 1.73281,0.35203 -0.84528,6.39561 c 3.32473,-3.20751 6.40999,-4.81129 9.25576,-4.81135 0.6762,6e-5 2.22585,0.52814 4.64898,1.58423 2.42312,1.01707 4.1841,1.5256 5.28298,1.52553 1.09882,7e-5 2.46535,-1.15388 4.09956,-3.46182 z"
       inkscape:export-filename="D:\13CI0236\TGS\Proto\work\res\gra\path3029.png"
       inkscape:export-xdpi="89.882866"
       inkscape:export-ydpi="89.882866" />
    <path
       inkscape:connector-curvature="0"
       id="path3027"
       style="font-size:40px;font-style:normal;font-variant:normal;font-weight:normal;font-stretch:normal;line-height:125%;letter-spacing:0px;word-spacing:0px;fill:url(#linearGradient4002);fill-opacity:1;fill-rule:nonzero;stroke:url(#linearGradient4004);stroke-width:0.99114162;stroke-linecap:butt;stroke-linejoin:round;stroke-miterlimit:4;stroke-opacity:1;stroke-dasharray:none;font-family:French Script MT;-inkscape-font-specification:French Script MT"
       d="m 343.50881,318.47891 c 3.35897,2.31174 5.71311,4.53383 7.06247,6.66615 1.3493,2.13238 2.02398,4.65337 2.02399,7.56293 -1e-5,4.86264 -1.28475,8.93805 -3.85419,12.22628 -2.56951,3.28821 -5.8926,4.93234 -9.9693,4.93234 -3.81831,0 -6.91892,-1.47472 -9.30179,-4.42415 -2.38286,-2.94947 -3.57429,-6.57647 -3.57429,-10.88109 0,-6.25758 2.72738,-11.35934 8.18213,-15.30524 -2.58382,-2.47113 -4.28486,-4.59354 -5.10308,-6.36722 -0.8182,-1.77362 -1.22732,-3.81632 -1.22732,-6.12809 0,-4.50383 1.28474,-8.28031 3.85424,-11.32946 2.56945,-3.04904 5.72029,-4.57356 9.45251,-4.57361 3.15798,5e-5 5.7418,1.1559 7.75148,3.46759 2.00962,2.31177 3.01446,5.26123 3.01449,8.84835 -3e-5,3.18862 -0.60294,5.93876 -1.80868,8.25046 -1.20583,2.31178 -3.37338,4.66336 -6.50266,7.05476 z m -2.024,-1.43485 c 4.53605,-2.39142 6.80407,-6.27751 6.80408,-11.65832 -10e-6,-3.46752 -0.8254,-6.20774 -2.47616,-8.22057 -1.65081,-2.01275 -3.88294,-3.01913 -6.69642,-3.0192 -2.4403,7e-5 -4.35663,0.84703 -5.74903,2.54092 -1.39239,1.694 -2.08861,3.93596 -2.08861,6.72592 0,5.58006 3.40205,10.12384 10.20614,13.63125 z m -5.46912,3.76652 c -4.16283,2.3516 -6.24425,6.35729 -6.24425,12.01701 0,4.06548 0.97611,7.4932 2.92835,10.2832 1.95222,2.79003 4.46428,4.18504 7.53617,4.18504 2.61252,0 4.737,-1.08614 6.37345,-3.25834 1.63641,-2.17225 2.45462,-4.81281 2.45465,-7.92166 -3e-5,-2.31174 -0.46655,-4.32453 -1.39958,-6.03841 -0.93309,-1.71384 -3.0504,-3.64693 -6.35191,-5.79926 z"
       inkscape:export-filename="D:\13CI0236\TGS\Proto\work\res\gra\path3029.png"
       inkscape:export-xdpi="89.882866"
       inkscape:export-ydpi="89.882866" />
    <path
       inkscape:connector-curvature="0"
       id="path3029"
       style="font-size:40px;font-style:normal;font-variant:normal;font-weight:normal;font-stretch:normal;line-height:125%;letter-spacing:0px;word-spacing:0px;fill:url(#linearGradient3997);fill-opacity:1;fill-rule:nonzero;stroke:url(#linearGradient3999);stroke-width:0.99212968;stroke-linecap:butt;stroke-linejoin:round;stroke-miterlimit:4;stroke-opacity:1;stroke-dasharray:none;font-family:French Script MT;-inkscape-font-specification:French Script MT"
       d="m 376.18093,314.19806 0.0864,1.79537 c -4e-5,3.55086 -0.83345,6.54316 -2.5002,8.97685 -1.66683,2.43376 -3.75031,3.65061 -6.2505,3.65059 -2.7301,2e-5 -5.05786,-1.5759 -6.98329,-4.7278 -1.92545,-3.15185 -2.88815,-7.1216 -2.88815,-11.90929 0,-5.86483 1.35785,-10.85197 4.07359,-14.96145 2.71571,-4.10932 5.79785,-6.16405 9.24639,-6.16408 3.50601,3e-5 6.50195,2.28416 8.98778,6.8523 2.4858,4.56828 3.7287,10.3833 3.72873,17.44503 -3e-5,9.05668 -1.91826,17.10593 -5.75475,24.14775 -3.83653,7.04185 -8.12565,10.56279 -12.86739,10.56279 -1.81047,0 -3.2833,-0.57852 -4.41843,-1.73555 -1.13513,-1.15702 -1.70273,-2.59329 -1.70272,-4.30889 -1e-5,-3.19176 1.36504,-4.86745 4.09514,-5.02701 l 0.25865,0.89767 c -0.54602,0.15954 -0.81904,0.83785 -0.81902,2.03477 -2e-5,1.3964 0.38076,2.54343 1.14233,3.44111 0.76153,0.89766 1.74581,1.34652 2.9528,1.34652 3.44853,0 6.57375,-2.79281 9.37573,-8.37842 2.80191,-5.58556 4.20287,-12.22841 4.20291,-19.92859 -4e-5,-6.54311 -1.14235,-11.89928 -3.42699,-16.06857 -2.28467,-4.16919 -5.0507,-6.25383 -8.29805,-6.25389 -2.47147,6e-5 -4.44721,1.13713 -5.92721,3.4112 -1.47997,2.27418 -2.21999,5.30639 -2.21999,9.09656 0,4.22913 0.90524,7.81989 2.71573,10.77223 1.81048,2.95242 3.82213,4.42861 6.03496,4.42858 1.58059,3e-5 2.94561,-0.83781 4.09515,-2.51352 1.14949,-1.67566 1.78172,-3.96974 1.89667,-6.88226 z"
       inkscape:export-xdpi="89.882866"
       inkscape:export-ydpi="89.882866" />
    <text
       xml:space="preserve"
       style="font-size:40px;font-style:normal;font-variant:normal;font-weight:normal;font-stretch:normal;line-height:125%;letter-spacing:0px;word-spacing:0px;fill:#000000;fill-opacity:1;stroke:none;font-family:Meiryo UI;-inkscape-font-specification:Meiryo UI"
       x="394.58249"
       y="306.75519"
       id="text4148"
       sodipodi:linespacing="125%"><tspan
         sodipodi:role="line"
         x="394.58249"
         y="306.75519"
         style="font-size:18px"
         id="tspan3954">32*</tspan><tspan
         sodipodi:role="line"
         x="394.58249"
         y="329.25519"
         rotate="0 0 0"
         style="font-size:18px"
         id="tspan3952">64</tspan></text>
  </g>
  <g
     inkscape:groupmode="layer"
     id="layer2"
     inkscape:label="レイヤー"
     style="display:none"
     sodipodi:insensitive="true">
    <rect
       y="288.85071"
       x="133.48854"
       height="63.02293"
       width="31.022932"
       id="rect3932"
       style="fill:none;stroke:#2f0606;stroke-width:0.97707003;stroke-linecap:square;stroke-linejoin:round;stroke-miterlimit:4;stroke-opacity:1;stroke-dasharray:none;stroke-dashoffset:0" />
    <rect
       style="fill:none;stroke:#2f0606;stroke-width:0.97707003;stroke-linecap:square;stroke-linejoin:round;stroke-miterlimit:4;stroke-opacity:1;stroke-dasharray:none;stroke-dashoffset:0"
       id="rect3973"
       width="31.022932"
       height="63.02293"
       x="196.48854"
       y="288.85071" />
    <rect
       y="288.85071"
       x="290.98859"
       height="63.02293"
       width="31.022932"
       id="rect3975"
       style="fill:none;stroke:#2f0606;stroke-width:0.97707003;stroke-linecap:square;stroke-linejoin:round;stroke-miterlimit:4;stroke-opacity:1;stroke-dasharray:none;stroke-dashoffset:0" />
    <rect
       style="fill:none;stroke:#2f0606;stroke-width:0.97707003;stroke-linecap:square;stroke-linejoin:round;stroke-miterlimit:4;stroke-opacity:1;stroke-dasharray:none;stroke-dashoffset:0"
       id="rect3977"
       width="31.022932"
       height="63.02293"
       x="227.98854"
       y="288.85071" />
    <rect
       y="288.85071"
       x="259.48856"
       height="63.02293"
       width="31.022932"
       id="rect3979"
       style="fill:none;stroke:#2f0606;stroke-width:0.97707003;stroke-linecap:square;stroke-linejoin:round;stroke-miterlimit:4;stroke-opacity:1;stroke-dasharray:none;stroke-dashoffset:0" />
    <rect
       style="fill:none;stroke:#2f0606;stroke-width:0.97707003;stroke-linecap:square;stroke-linejoin:round;stroke-miterlimit:4;stroke-opacity:1;stroke-dasharray:none;stroke-dashoffset:0"
       id="rect3981"
       width="31.022932"
       height="63.02293"
       x="70.488533"
       y="288.85071" />
    <rect
       y="288.85071"
       x="101.98854"
       height="63.02293"
       width="31.022932"
       id="rect3983"
       style="fill:none;stroke:#2f0606;stroke-width:0.97707003;stroke-linecap:square;stroke-linejoin:round;stroke-miterlimit:4;stroke-opacity:1;stroke-dasharray:none;stroke-dashoffset:0" />
    <rect
       style="fill:none;stroke:#2f0606;stroke-width:0.97707003;stroke-linecap:square;stroke-linejoin:round;stroke-miterlimit:4;stroke-opacity:1;stroke-dasharray:none;stroke-dashoffset:0"
       id="rect3985"
       width="31.022932"
       height="63.02293"
       x="322.48859"
       y="288.85071" />
    <rect
       y="288.85071"
       x="353.98859"
       height="63.02293"
       width="31.022932"
       id="rect3987"
       style="fill:none;stroke:#2f0606;stroke-width:0.97707003;stroke-linecap:square;stroke-linejoin:round;stroke-miterlimit:4;stroke-opacity:1;stroke-dasharray:none;stroke-dashoffset:0" />
    <rect
       style="fill:none;stroke:#2f0606;stroke-width:0.97707003;stroke-linecap:square;stroke-linejoin:round;stroke-miterlimit:4;stroke-opacity:1;stroke-dasharray:none;stroke-dashoffset:0"
       id="rect3989"
       width="31.022932"
       height="63.02293"
       x="164.98854"
       y="288.85071" />
    <rect
       y="288.85071"
       x="385.48859"
       height="63.02293"
       width="31.022932"
       id="rect3991"
       style="fill:none;stroke:#2f0606;stroke-width:0.97707003;stroke-linecap:square;stroke-linejoin:round;stroke-miterlimit:4;stroke-opacity:1;stroke-dasharray:none;stroke-dashoffset:0" />
  </g>
</svg>
